<?xml version="1.0" standalone="no"?>
<!DOCTYPE svg PUBLIC "-//W3C//DTD SVG 20010904//EN"
 "http://www.w3.org/TR/2001/REC-SVG-20010904/DTD/svg10.dtd">
<svg version="1.0" xmlns="http://www.w3.org/2000/svg"
 width="70.000000pt" height="70.000000pt" viewBox="0 0 70.000000 70.000000"
 preserveAspectRatio="xMidYMid meet">
<metadata>
Created by potrace 1.14, written by Peter Selinger 2001-2017
</metadata>
<g transform="translate(0.000000,70.000000) scale(0.100000,-0.100000)"
fill="#000000" stroke="none">
<path d="M230 688 c0 -4 5 -8 11 -8 5 0 8 -4 4 -9 -3 -6 4 -15 16 -22 18 -9
21 -9 16 3 -4 12 6 15 45 17 28 1 55 4 59 7 8 5 14 -18 10 -39 -1 -5 3 -6 8
-2 6 3 15 -3 20 -14 16 -29 13 -35 -6 -20 -16 13 -17 12 -4 -3 12 -16 11 -18
-3 -18 -10 0 -15 -4 -12 -8 6 -10 -39 -8 -69 3 -16 6 -17 5 -5 -4 12 -9 9 -10
-15 -6 -16 2 -31 9 -33 15 -2 5 -8 10 -13 10 -6 0 -7 -5 -3 -12 4 -6 3 -8 -4
-5 -13 9 -9 36 7 46 10 6 8 10 -4 15 -11 4 -23 0 -32 -11 -14 -17 -14 -17 -9
0 8 24 1 21 -18 -7 -11 -18 -13 -27 -4 -32 7 -5 8 -3 3 6 -5 9 -4 11 3 6 17
-10 15 -29 -3 -23 -8 4 -17 2 -21 -4 -4 -6 -12 -5 -22 3 -13 11 -15 10 -9 -4
4 -12 1 -18 -9 -18 -9 0 -12 5 -8 12 4 7 3 8 -5 4 -6 -4 -9 -12 -5 -17 11 -19
14 -59 4 -59 -6 0 -8 5 -5 10 3 6 2 10 -3 10 -5 0 -9 -14 -9 -30 0 -20 3 -26
9 -18 4 7 8 9 8 3 -1 -5 -7 -19 -15 -29 -13 -17 -12 -21 3 -33 9 -8 11 -12 5
-8 -7 3 -13 1 -13 -5 0 -6 -5 -8 -12 -4 -7 4 -8 3 -4 -4 4 -7 15 -12 24 -13
14 0 13 -2 -3 -9 -11 -5 -15 -9 -8 -9 7 -1 10 -10 6 -23 -3 -13 -7 -44 -8 -71
-1 -26 -6 -51 -10 -55 -5 -4 -5 -1 0 7 6 10 4 12 -4 6 -9 -5 -10 -10 -2 -18
13 -13 15 -31 3 -23 -5 3 -9 -1 -9 -9 0 -8 4 -12 8 -9 4 2 7 -5 6 -16 -1 -12
-7 -18 -14 -16 -7 3 -10 -1 -6 -9 3 -8 9 -13 13 -10 5 3 11 1 14 -4 4 -5 1
-13 -5 -17 -8 -5 -9 -3 -4 6 5 9 4 11 -3 6 -8 -5 -8 -13 0 -31 9 -20 14 -22
25 -14 11 10 12 8 7 -6 -6 -15 -5 -16 17 -5 21 12 22 11 12 -2 -7 -8 -10 -18
-6 -21 3 -4 0 -7 -7 -7 -7 0 -10 -3 -7 -6 4 -4 14 -1 24 7 13 11 15 11 9 0 -7
-11 10 -12 95 -8 122 6 112 5 104 17 -3 6 1 10 10 10 10 0 13 -5 9 -12 -4 -7
-3 -8 5 -4 6 4 8 12 5 18 -5 7 0 9 15 5 14 -3 26 1 37 16 10 14 14 16 11 6 -4
-13 0 -16 19 -15 17 1 23 5 19 16 -5 12 -4 13 6 2 17 -16 32 -16 23 1 -4 6 3
3 16 -8 13 -11 21 -15 18 -10 -3 6 0 16 7 22 11 10 17 10 29 -3 19 -18 22 -4
4 15 -10 11 -10 13 0 7 6 -4 12 -2 12 3 0 6 4 11 10 11 5 0 7 -8 3 -18 -3 -9
-3 -14 1 -10 4 3 8 12 10 20 1 7 5 19 10 26 4 7 4 12 -1 11 -20 -3 -27 2 -13
11 10 6 11 10 3 10 -7 0 -13 5 -13 11 0 5 4 8 8 5 4 -2 8 6 8 20 0 14 -5 23
-11 20 -7 -2 -12 2 -12 10 0 9 7 13 16 9 12 -4 12 -2 -2 9 -13 10 -15 15 -5
19 10 3 8 10 -7 27 -11 13 -15 20 -8 17 19 -12 25 10 7 28 -14 13 -14 19 -4
28 10 9 11 9 5 -2 -6 -10 -4 -12 4 -7 9 6 9 11 0 22 -6 7 -15 11 -20 8 -5 -3
-6 2 -2 11 4 13 7 14 14 3 6 -9 8 -6 6 10 -1 15 -6 21 -17 17 -12 -4 -11 -2 2
8 15 12 15 14 0 25 -9 7 -12 10 -6 7 7 -2 14 4 17 16 5 17 3 18 -9 8 -12 -10
-13 -9 -8 6 5 13 4 16 -4 11 -7 -4 -12 -2 -12 3 0 6 6 11 14 11 8 0 17 4 21 9
3 6 -4 8 -16 6 -16 -3 -18 -1 -10 8 12 15 4 27 -29 46 -23 13 -24 13 -12 -2
10 -12 10 -17 1 -23 -8 -5 -9 -3 -4 6 6 10 4 12 -9 7 -10 -4 -15 -3 -11 3 3 5
2 17 -3 26 -8 15 -10 15 -15 0 -5 -11 -3 -15 5 -10 6 4 8 3 5 -3 -7 -11 -43
-10 -54 2 -5 4 -3 6 2 2 6 -3 17 -1 25 4 11 7 7 8 -12 5 -30 -5 -33 0 -18 24
6 10 10 11 10 3 0 -7 7 -13 15 -13 8 0 15 5 15 11 0 5 -4 8 -10 4 -12 -7 -39
45 -32 65 2 8 2 12 -2 9 -11 -10 -15 -49 -5 -49 5 0 9 -5 9 -11 0 -8 -6 -7
-17 2 -9 8 -19 13 -22 11 -3 -2 -7 2 -9 10 -3 10 -2 10 6 -1 5 -7 12 -9 15 -4
3 4 0 15 -6 24 -14 18 -78 21 -89 5 -5 -8 -8 -7 -8 2 0 6 -11 12 -25 12 -14 0
-25 -4 -25 -10 0 -5 -5 -10 -11 -10 -5 0 -8 4 -5 8 3 5 -1 9 -9 9 -8 0 -15 -4
-15 -9z m208 -73 c-3 -3 -9 2 -12 12 -6 14 -5 15 5 6 7 -7 10 -15 7 -18z
m-195 3 c-4 -7 -8 -19 -9 -26 -4 -22 -9 -22 -23 0 -7 11 -8 17 -3 14 5 -3 15
1 22 9 15 18 24 20 13 3z m200 -41 c3 -7 -3 -13 -14 -14 -15 -1 -16 1 -6 12
15 18 14 18 20 2z m102 -496 c3 -5 2 -12 -3 -15 -5 -3 -9 1 -9 9 0 17 3 19 12
6z m-192 -49 c-10 -10 -20 -14 -22 -9 -2 5 3 13 10 18 24 15 30 10 12 -9z"/>
<path d="M215 660 c-3 -5 -1 -10 4 -10 6 0 11 5 11 10 0 6 -2 10 -4 10 -3 0
-8 -4 -11 -10z"/>
<path d="M300 650 c-8 -5 -10 -10 -5 -10 6 0 17 5 25 10 8 5 11 10 5 10 -5 0
-17 -5 -25 -10z"/>
<path d="M272 614 c-7 -8 -8 -14 -3 -14 10 0 25 19 20 25 -2 1 -10 -3 -17 -11z"/>
<path d="M83 325 c0 -8 4 -12 9 -9 5 3 6 10 3 15 -9 13 -12 11 -12 -6z"/>
</g>
</svg>
